<?xml version="1.0" encoding="UTF-8"?>
<svg width="73px" height="36px" viewBox="0 0 73 36" version="1.1" xmlns="http://www.w3.org/2000/svg" xmlns:xlink="http://www.w3.org/1999/xlink">
    <!-- Generator: Sketch 56.1 (81669) - https://sketch.com -->
    <title>landing</title>
    <desc>Created with Sketch.</desc>
    <g id="Page-1" stroke="none" stroke-width="1" fill="none" fill-rule="evenodd">
        <path d="M0,23 L0,0.58 L1.14,0.58 L1.14,23 L0,23 Z M3.42,23 L3.42,0.58 L5.7,0.58 L5.7,23 L3.42,23 Z M10.26,23 L10.26,0.58 L11.4,0.58 L11.4,23 L10.26,23 Z M3.762,25.736 L4.902,25.736 L4.902,25.812 C4.82599962,25.8880004 4.788,25.9513331 4.788,26.002 C4.76266654,26.0780004 4.75,26.1919992 4.75,26.344 L4.75,29.802 C5.0033346,29.4219981 5.3199981,29.1053346 5.7,28.852 C6.0800019,28.6239989 6.47266464,28.51 6.878,28.51 C7.48600304,28.51 7.96733156,28.7253312 8.322,29.156 C8.67666844,29.5866688 8.854,30.270662 8.854,31.208 L8.854,35.122 L7.866,35.122 L7.866,31.246 C7.866,30.58733 7.75200114,30.1186681 7.524,29.84 C7.29599886,29.5359985 7.00466844,29.384 6.65,29.384 C6.34599848,29.384 6.05466806,29.4726658 5.776,29.65 C5.47199848,29.8020008 5.23133422,30.042665 5.054,30.372 C4.85133232,30.6760015 4.75,31.0179981 4.75,31.398 L4.75,35.122 L3.762,35.122 L3.762,25.736 Z M12.54,23 L12.54,0.58 L13.68,0.58 L13.68,23 L12.54,23 Z M17.1,23 L17.1,0.58 L21.66,0.58 L21.66,23 L17.1,23 Z M22.8,23 L22.8,0.58 L23.94,0.58 L23.94,23 L22.8,23 Z M18.81,35.236 C18.2273304,35.236 17.7080023,35.0966681 17.252,34.818 C16.8213312,34.5393319 16.4793346,34.1466692 16.226,33.64 C15.9473319,33.1333308 15.808,32.55067 15.808,31.892 C15.808,31.23333 15.9473319,30.6506692 16.226,30.144 C16.4793346,29.6373308 16.8213312,29.2446681 17.252,28.966 C17.7080023,28.6619985 18.2273304,28.51 18.81,28.51 C19.3926696,28.51 19.8993312,28.6619985 20.33,28.966 C20.7860023,29.2446681 21.1406654,29.6373308 21.394,30.144 C21.6473346,30.6506692 21.774,31.23333 21.774,31.892 C21.774,32.55067 21.6473346,33.1333308 21.394,33.64 C21.1406654,34.1466692 20.7860023,34.5393319 20.33,34.818 C19.8993312,35.0966681 19.3926696,35.236 18.81,35.236 Z M18.81,34.4 C19.1646684,34.4 19.4939985,34.2860011 19.798,34.058 C20.0766681,33.8553323 20.3046658,33.5640019 20.482,33.184 C20.6340008,32.7786646 20.71,32.3353357 20.71,31.854 C20.71,31.1193297 20.5326684,30.5240023 20.178,30.068 C19.8233316,29.6119977 19.3673361,29.384 18.81,29.384 C18.2526639,29.384 17.7966684,29.6119977 17.442,30.068 C17.0873316,30.5240023 16.91,31.1193297 16.91,31.854 C16.91,32.3353357 16.9859992,32.7786646 17.138,33.184 C17.3153342,33.5640019 17.5433319,33.8553323 17.822,34.058 C18.1006681,34.2860011 18.4299981,34.4 18.81,34.4 Z M25.08,23 L25.08,0.58 L29.64,0.58 L29.64,23 L25.08,23 Z M30.78,23 L30.78,0.58 L34.2,0.58 L34.2,23 L30.78,23 Z M35.34,23 L35.34,0.58 L36.48,0.58 L36.48,23 L35.34,23 Z M28.348,28.662 L29.298,28.662 L29.298,29.308 C29.4500008,29.0799989 29.6399989,28.8900008 29.868,28.738 C30.0960011,28.5859992 30.3366654,28.51 30.59,28.51 C30.8686681,28.51 31.1219989,28.5986658 31.35,28.776 C31.5526677,28.9533342 31.6793331,29.1813319 31.73,29.46 C31.8566673,29.1813319 32.0593319,28.9533342 32.338,28.776 C32.5913346,28.5986658 32.882665,28.51 33.212,28.51 C33.6173354,28.51 33.9339989,28.6619985 34.162,28.966 C34.3646677,29.2700015 34.4533335,29.6753308 34.428,30.182 L34.428,35.122 L33.516,35.122 L33.516,30.562 C33.516,30.0046639 33.4653338,29.6500008 33.364,29.498 C33.2626662,29.3459992 33.1106677,29.27 32.908,29.27 C32.7306658,29.27 32.5660008,29.3459992 32.414,29.498 C32.2619992,29.6500008 32.1353338,29.8526654 32.034,30.106 C31.9326662,30.3593346 31.882,30.6126654 31.882,30.866 L31.882,35.122 L30.932,35.122 L30.932,30.638 C30.932,30.1059973 30.8813338,29.7513342 30.78,29.574 C30.6786662,29.3713323 30.4886681,29.27 30.21,29.27 C30.0833327,29.27 29.9440008,29.3333327 29.792,29.46 C29.6399992,29.5866673 29.5133338,29.7766654 29.412,30.03 C29.3359996,30.2580011 29.298,30.5239985 29.298,30.828 L29.298,35.122 L28.348,35.122 L28.348,28.662 Z M37.62,23 L37.62,0.58 L38.76,0.58 L38.76,23 L37.62,23 Z M39.9,23 L39.9,0.58 L42.18,0.58 L42.18,23 L39.9,23 Z M44.46,23 L44.46,0.58 L45.6,0.58 L45.6,23 L44.46,23 Z M44.194,35.274 C43.2313285,35.274 42.4713361,34.9826696 41.914,34.4 C41.3313304,33.8173304 41.04,32.9940053 41.04,31.93 C41.04,31.2206631 41.1793319,30.6000027 41.458,30.068 C41.7113346,29.5613308 42.0659977,29.1813346 42.522,28.928 C42.9526688,28.6493319 43.4466639,28.51 44.004,28.51 C44.7893373,28.51 45.4226643,28.7633308 45.904,29.27 C46.3853357,29.8020027 46.626,30.5746616 46.626,31.588 L46.626,32.044 L42.028,32.044 C42.0533335,32.8293373 42.2686646,33.4246646 42.674,33.83 C43.0793354,34.2353354 43.5986635,34.438 44.232,34.438 C44.9160034,34.438 45.4733312,34.1973357 45.904,33.716 L46.474,34.286 C45.9166639,34.94467 45.1566715,35.274 44.194,35.274 Z M45.6,31.246 C45.6,30.637997 45.4480015,30.1566684 45.144,29.802 C44.8399985,29.4473316 44.4346692,29.27 43.928,29.27 C43.4719977,29.27 43.0666684,29.434665 42.712,29.764 C42.3573316,30.093335 42.1420004,30.58733 42.066,31.246 L45.6,31.246 Z M50.16,23 L50.16,0.58 L51.3,0.58 L51.3,23 L50.16,23 Z M53.58,23 L53.58,0.58 L54.72,0.58 L54.72,23 L53.58,23 Z M57,23 L57,0.58 L61.56,0.58 L61.56,23 L57,23 Z M57.646,28.51 C58.3300034,28.51 58.8999977,28.7506643 59.356,29.232 L58.9,29.992 L58.862,30.144 L58.748,30.068 C58.7226665,29.9666662 58.6973335,29.8906669 58.672,29.84 C58.6213331,29.7639996 58.5326673,29.6880004 58.406,29.612 C58.1779989,29.4599992 57.899335,29.384 57.57,29.384 C57.240665,29.384 56.9240015,29.4726658 56.62,29.65 C56.3159985,29.8020008 56.0753342,30.0553316 55.898,30.41 C55.6953323,30.7646684 55.594,31.1953308 55.594,31.702 L55.594,35.122 L54.568,35.122 L54.568,28.662 L55.632,28.662 L55.594,29.84 C55.7713342,29.4346646 56.0499981,29.1053346 56.43,28.852 C56.8100019,28.6239989 57.2153312,28.51 57.646,28.51 Z M62.7,23 L62.7,0.58 L63.84,0.58 L63.84,23 L62.7,23 Z M66.12,23 L66.12,0.58 L69.54,0.58 L69.54,23 L66.12,23 Z M70.68,23 L70.68,0.58 L72.96,0.58 L72.96,23 L70.68,23 Z M68.97,26.268 C69.8313376,26.268 70.5026643,26.6606627 70.984,27.446 C71.4653357,28.2566707 71.706,29.3586597 71.706,30.752 C71.706,32.1960072 71.4653357,33.3106627 70.984,34.096 C70.5279977,34.8813373 69.8566711,35.274 68.97,35.274 C68.0833289,35.274 67.4120023,34.8813373 66.956,34.096 C66.4746643,33.3106627 66.234,32.1960072 66.234,30.752 C66.234,29.3586597 66.4746643,28.2566707 66.956,27.446 C67.4373357,26.6606627 68.1086624,26.268 68.97,26.268 Z M68.97,27.142 C68.4379973,27.142 68.0200015,27.4586635 67.716,28.092 C67.4119985,28.75067 67.26,29.6373278 67.26,30.752 C67.26,31.3853365 67.2979996,31.9299977 67.374,32.386 L70.376,28.51 C70.2493327,28.0793312 70.0593346,27.7373346 69.806,27.484 C69.5779989,27.2559989 69.299335,27.142 68.97,27.142 Z M68.97,34.4 C69.5020027,34.4 69.9199985,34.096003 70.224,33.488 C70.5280015,32.8546635 70.68,31.9426726 70.68,30.752 C70.68,30.2199973 70.6420004,29.7513354 70.566,29.346 L67.602,33.184 C67.8806681,33.9946707 68.3366635,34.4 68.97,34.4 Z" id="homer0" fill="#D5DAE2" fill-rule="nonzero"></path>
    </g>
</svg>