<?xml version="1.0" encoding="UTF-8"?>
<svg width="493px" height="61px" viewBox="0 0 493 61" version="1.1" xmlns="http://www.w3.org/2000/svg" xmlns:xlink="http://www.w3.org/1999/xlink">
    <g id="Page-1" stroke="none" stroke-width="1" fill="none" fill-rule="evenodd">
        <g id="Group-7">
            <g id="Logo-(White)">
                <path d="M0,10.1246308 L4.4228838,10.1246308 L4.4228838,13.8466136 C6.76017376,12.2740694 8.56408707,11.1955467 9.83462373,10.6110455 C11.7404287,9.73429371 14.2994429,9.29592439 17.5117432,9.29592439 C21.0356845,9.29592439 23.852398,9.91444548 25.9619683,11.1515062 C28.0715386,12.3885669 29.6117416,14.3582263 30.5826233,17.0605434 C31.5535051,19.7628605 32.0389387,23.3598909 32.0389387,27.8517425 C32.0389387,32.5838 31.5475121,36.3669872 30.5646441,39.2014176 C29.5817762,42.035848 28.0295872,44.1015883 25.9080307,45.3987005 C23.7864742,46.6958127 20.9637677,47.3443591 17.4398264,47.3443591 C14.3713605,47.3443591 11.9262134,46.9960657 10.1043118,46.2994684 C8.28241015,45.6028711 6.76018623,44.4378896 5.53759435,42.8044891 L5.53759435,60.5316007 L0,60.5316007 L0,10.1246308 Z M16.1093654,42.8405198 C18.914135,42.8405198 21.0356597,42.4201657 22.474003,41.5794448 C23.9123464,40.7387239 24.9191717,39.2734895 25.4945091,37.1836976 C26.0698464,35.0939057 26.3575108,31.9952952 26.3575108,27.8877732 C26.3575108,24.0444777 26.0758394,21.1380291 25.5124883,19.1683402 C24.9491371,17.1986513 23.9602909,15.8174877 22.5459199,15.024808 C21.1315489,14.2321283 19.0339962,13.8357944 16.253199,13.8357944 C13.3285674,13.8357944 11.1111547,14.2381334 9.6008941,15.0428234 C8.09063354,15.8475134 7.03586422,17.2526972 6.43655447,19.258417 C5.83724473,21.2641368 5.53759435,24.2246309 5.53759435,28.1399882 C5.53759435,33.0401899 6.33466435,36.715286 7.92882827,39.1653869 C9.52299219,41.6154877 12.2498106,42.8405198 16.1093654,42.8405198 Z M42.1072921,10.0886001 L47.1055104,10.0886001 L47.1055104,13.276827 C49.3749428,12.1602024 51.172863,11.3496751 52.4992711,10.8452451 C53.8256792,10.3408151 56.1749616,9.81236464 59.5471185,9.25989368 L59.5471185,14.772593 L58.7560336,14.772593 C55.150616,15.4290139 52.6766803,16.1175332 51.3342265,16.8381511 C49.3205458,17.919078 47.9316242,18.3678436 47.429136,21.3662138 L47.429136,46.5156527 L42.1072921,46.5156527 L42.1072921,10.0886001 Z M81.6615375,47.3443591 C77.6102036,47.3443591 74.3679865,46.7078229 71.9347889,45.4347312 C69.5015914,44.1616396 67.7276612,42.1379347 66.612945,39.3635558 C65.4982289,36.5891769 64.9408792,32.8960656 64.9408792,28.284111 C64.9408792,23.6721565 65.4982289,19.9850502 66.612945,17.2226816 C67.7276612,14.460313 69.5015914,12.4426132 71.9347889,11.1695216 C74.3679865,9.89642994 77.6102036,9.25989368 81.6615375,9.25989368 C85.7608161,9.25989368 89.0329982,9.89042488 91.478182,11.1515062 C93.9233658,12.4125875 95.709282,14.4182773 96.8359843,17.1686356 C97.9626866,19.9189939 98.5260293,23.588085 98.5260293,28.1760189 C98.5260293,32.811994 97.9626866,36.5231205 96.8359843,39.3095097 C95.709282,42.0958989 93.9233658,44.131614 91.478182,45.4167159 C89.0329982,46.7018178 85.7608161,47.3443591 81.6615375,47.3443591 Z M81.8772879,42.8405198 C84.7300023,42.8405198 86.9414221,42.3961454 88.5116136,41.5073833 C90.0818051,40.6186213 91.2024975,39.1413767 91.8737244,37.0756054 C92.5449514,35.0098341 92.8805598,32.1033855 92.8805598,28.3561725 C92.8805598,24.5849388 92.5329653,21.660475 91.837766,19.5826934 C91.1425667,17.5049118 89.9979023,16.0156572 88.4037384,15.1148848 C86.8095745,14.2141124 84.5621966,13.763733 81.6615375,13.763733 C78.8088231,13.763733 76.5914103,14.2141124 75.0092326,15.1148848 C73.4270548,16.0156572 72.2943764,17.516922 71.6111633,19.6187242 C70.9279502,21.7205264 70.5863488,24.6570002 70.5863488,28.4282339 C70.5863488,32.1514264 70.9339432,35.0398598 71.6291425,37.0936208 C72.3243418,39.1473818 73.4749993,40.6186213 75.0811494,41.5073833 C76.6872995,42.3961454 78.9526563,42.8405198 81.8772879,42.8405198 Z M104.315333,61 C103.196621,61 102.621453,60.8609455 102.589828,60.5828365 L99.7845735,55.7034849 C100.983193,55.9677115 102.253711,56.0998228 103.596164,56.0998228 C105.202315,56.0998228 106.418895,55.9376862 107.245943,55.6134082 C108.07299,55.2891301 108.654312,54.7306596 108.989925,53.9379799 C109.325539,53.1453002 109.493343,51.9683087 109.493343,50.4069699 L109.529301,10.0886001 L115.030937,10.0886001 L115.030937,49.6503249 C115.030937,52.4126935 114.671357,54.6165502 113.952185,56.261961 C113.233013,57.9073719 112.100335,59.1083837 110.554116,59.8650325 C109.007897,60.6216813 106.928323,61 104.315333,61 Z M142.323366,47.3443591 C138.367922,47.3443591 135.203614,46.7078229 132.830348,45.4347312 C130.457081,44.1616396 128.725102,42.1439398 127.634358,39.3815712 C126.543614,36.6192026 125.998251,32.9320963 125.998251,28.3201418 C125.998251,23.9964344 126.537621,20.4354344 127.616379,17.6370348 C128.695136,14.8386353 130.421123,12.7428697 132.794389,11.3496751 C135.167656,9.95648053 138.296006,9.25989368 142.179533,9.25989368 C145.895253,9.25989368 148.873778,9.81235911 151.115196,10.9173066 C153.356615,12.022254 154.992706,13.7697262 156.023519,16.1597755 C157.054332,18.5498249 157.56973,21.7385113 157.56973,25.7259303 L157.533772,29.2209096 L131.607762,29.2209096 C131.607762,32.5597726 131.973335,35.2320238 132.704493,37.2377437 C133.435651,39.2434635 134.586309,40.7086979 136.1565,41.6334908 C137.726692,42.5582838 139.830237,43.0206734 142.4672,43.0206734 C144.600743,43.0206734 146.320736,42.8044912 147.627231,42.3721205 C148.933726,41.9397498 149.904594,41.249168 150.539862,40.3003544 C151.17513,39.3515408 151.528718,38.0844734 151.600635,36.499114 L157.246105,36.499114 C157.246105,40.1982859 156.029524,42.9305877 153.596326,44.6961016 C151.163129,46.4616154 147.405513,47.3443591 142.323366,47.3443591 Z M151.924261,25.1134082 C151.996178,22.3510395 151.708513,20.1411778 151.061259,18.4837566 C150.414004,16.8263355 149.359235,15.6133135 147.896919,14.8446545 C146.434603,14.0759954 144.480883,13.6916716 142.035699,13.6916716 C139.470654,13.6916716 137.462996,14.039965 136.012666,14.7365623 C134.562337,15.4331596 133.501575,16.5981411 132.830348,18.2315416 C132.159121,19.8649422 131.775568,22.1588748 131.679679,25.1134082 L151.924261,25.1134082 Z M207.544721,47.4524513 C207.544721,44.9303265 207.544721,41.1471014 207.544721,36.1027761 L207.544721,14.3762552 L201.000292,14.3762552 L201.000292,9.98050797 L207.544721,9.98050797 L207.544721,0 L213.046357,0 L213.046357,9.98050797 L222,9.98050797 L222,14.3762552 L213.082316,14.3762552 L213.082316,36.8594211 C213.082316,38.2205883 213.082316,40.9651717 213.082316,45.0931713 L207.544721,47.4524513 Z" id="projext" fill="#D5DAE2" fill-rule="nonzero"></path>
                <g id="X" transform="translate(160.000000, 5.000000)" fill="#A3BE8C">
                    <g id="Group-5">
                        <polygon id="Rectangle" transform="translate(8.495935, 9.506250) rotate(54.000000) translate(-8.495935, -9.506250) " points="-0.817500125 6.76617397 17.8546435 6.61526248 17.80937 12.246326 -0.862773573 12.3972375"></polygon>
                        <polygon id="Rectangle" transform="translate(30.150116, 9.506250) scale(-1, 1) rotate(54.000000) translate(-30.150116, -9.506250) " points="20.8366805 6.76617397 39.5088241 6.61526248 39.4635507 12.246326 20.791407 12.3972375"></polygon>
                        <polygon id="Rectangle" transform="translate(8.495935, 35.535594) scale(1, -1) rotate(54.000000) translate(-8.495935, -35.535594) " points="-0.817500125 32.7955185 17.8546435 32.644607 17.80937 38.2756705 -0.862773573 38.426582"></polygon>
                        <polygon id="Rectangle" transform="translate(30.150116, 35.535594) scale(-1, -1) rotate(54.000000) translate(-30.150116, -35.535594) " points="20.8366805 32.7955185 39.5088241 32.644607 39.4635507 38.2756705 20.791407 38.426582"></polygon>
                    </g>
                    <polygon id="Polygon" points="19.3518519 16.93125 24.1401934 19.715625 24.1401934 25.284375 19.3518519 28.06875 14.5635103 25.284375 14.5635103 19.715625"></polygon>
                </g>
            </g>
            <text id="Bundling-made-simple" font-family="Metrophobic-Regular, Metrophobic" font-size="25" font-weight="normal" fill="#D5DAE2">
                <tspan x="234" y="39">Bundling made simple</tspan>
            </text>
        </g>
    </g>
</svg>
