<?xml version="1.0" encoding="UTF-8"?>
<svg width="138px" height="38px" viewBox="0 0 138 38" version="1.1" xmlns="http://www.w3.org/2000/svg" xmlns:xlink="http://www.w3.org/1999/xlink">
    <!-- Generator: Sketch 56.1 (81669) - https://sketch.com -->
    <title>landing</title>
    <desc>Created with Sketch.</desc>
    <g id="Page-1" stroke="none" stroke-width="1" fill="none" fill-rule="evenodd">
        <g id="Group-9">
            <g id="Logo-(White)">
                <path d="M0,6.30714708 L2.7493602,6.30714708 L2.7493602,8.62575927 C4.20227018,7.64614157 5.32362169,6.97427497 6.11341475,6.61015948 C7.29810434,6.06398624 8.88884291,5.79090372 10.8856782,5.79090372 C13.0762363,5.79090372 14.8271663,6.17621194 16.1385208,6.94683993 C17.4498754,7.71746792 18.4072988,8.94446884 19.0108199,10.6278795 C19.614341,12.3112902 19.9160971,14.5520632 19.9160971,17.3502658 C19.9160971,20.2981049 19.6106156,22.6548445 18.9996437,24.4205552 C18.3886717,26.186266 17.4237975,27.4731206 16.1049921,28.2811577 C14.7861867,29.0891948 13.0315312,29.4932073 10.8409731,29.4932073 C8.9335484,29.4932073 7.41359211,29.2762376 6.28105867,28.8422918 C5.14852523,28.4083459 4.20227793,27.6826198 3.44228838,26.6650916 L3.44228838,37.7082103 L0,37.7082103 L0,6.30714708 Z M10.0139298,26.6875369 C11.7574353,26.6875369 13.0762209,26.425677 13.9703262,25.9019492 C14.8644316,25.3782214 15.4902959,24.4654525 15.8479381,23.1636149 C16.2055802,21.8617773 16.3843986,19.9314954 16.3843986,17.3727112 C16.3843986,14.9785271 16.2093056,13.1679526 15.8591143,11.9409333 C15.5089231,10.7139139 14.8942349,9.85351694 14.0150313,9.35971648 C13.1358277,8.86591602 11.8319436,8.61901949 10.1033399,8.61901949 C8.28532571,8.61901949 6.90693398,8.86965688 5.96812336,9.37093916 C5.02931274,9.87222145 4.37364532,10.7475819 4.00110143,11.9970467 C3.62855753,13.2465115 3.44228838,15.0907537 3.44228838,17.5298287 C3.44228838,20.5824134 3.93776433,22.8718175 4.92873109,24.3981099 C5.91969785,25.9244022 7.61474715,26.6875369 10.0139298,26.6875369 Z M26.1748032,6.28470171 L29.2818038,6.28470171 L29.2818038,8.27081025 C30.692532,7.57520806 31.8101581,7.07028943 32.634682,6.75605434 C33.459206,6.44181926 34.9195708,6.11262059 37.0157763,5.76845836 L37.0157763,9.20259894 L36.5240209,9.20259894 C34.2828154,9.61151683 32.7449635,10.0404305 31.9104651,10.48934 C30.6587176,11.1627043 29.795334,11.4422633 29.4829764,13.3101004 L29.4829764,28.976964 L26.1748032,28.976964 L26.1748032,6.28470171 Z M50.7625773,29.4932073 C48.2441806,29.4932073 46.2287484,29.0966765 44.7162202,28.3036031 C43.2036919,27.5105296 42.1009786,26.249861 41.4080469,24.5215594 C40.7151153,22.7932577 40.3686546,20.492631 40.3686546,17.6196102 C40.3686546,14.7465893 40.7151153,12.4497034 41.4080469,10.7288836 C42.1009786,9.00806385 43.2036919,7.75113608 44.7162202,6.95806261 C46.2287484,6.16498914 48.2441806,5.76845836 50.7625773,5.76845836 C53.3107776,5.76845836 55.3448367,6.16124829 56.8648158,6.94683993 C58.3847949,7.73243157 59.4949591,8.98187763 60.1953416,10.6952156 C60.8957241,12.4085536 61.2459101,14.6942169 61.2459101,17.5522741 C61.2459101,20.4402586 60.8957241,22.7521079 60.1953416,24.4878913 C59.4949591,26.2236748 58.3847949,27.4918251 56.8648158,28.2923804 C55.3448367,29.0929357 53.3107776,29.4932073 50.7625773,29.4932073 Z M50.8966925,26.6875369 C52.6700014,26.6875369 54.0446678,26.4107135 55.0207328,25.8570585 C55.9967978,25.3034034 56.6934444,24.3831527 57.1106936,23.0962788 C57.5279427,21.8094049 57.7365642,19.9988303 57.7365642,17.6645009 C57.7365642,15.3152078 57.520492,13.4934107 57.0883411,12.1990549 C56.6561901,10.9046992 55.944642,9.97696677 54.9536752,9.41582989 C53.9627084,8.854693 52.5656898,8.57412877 50.7625773,8.57412877 C48.9892684,8.57412877 47.6108767,8.854693 46.6273608,9.41582989 C45.6438449,9.97696677 44.9397475,10.9121809 44.5150475,12.2215003 C44.0903474,13.5308197 43.8780006,15.3600985 43.8780006,17.7093916 C43.8780006,20.0287574 44.0940728,21.8281094 44.5262237,23.1075015 C44.9583746,24.3868936 45.6736482,25.3034034 46.6720658,25.8570585 C47.6704835,26.4107135 49.0786783,26.6875369 50.8966925,26.6875369 Z M64.8446662,38 C64.1492509,38 63.7917139,37.9133759 63.772055,37.7401276 L62.0282484,34.7005316 C62.7733362,34.8651318 63.5631174,34.9474306 64.3976157,34.9474306 C65.3960334,34.9474306 66.1522861,34.8464275 66.6663967,34.6444182 C67.1805073,34.4424089 67.5418694,34.0945093 67.750494,33.6007088 C67.9591186,33.1069083 68.0634293,32.3737005 68.0634293,31.4010632 L68.0857819,6.28470171 L71.5057177,6.28470171 L71.5057177,30.9297106 C71.5057177,32.6505304 71.2821947,34.0234247 70.8351421,35.0484347 C70.3880894,36.0734448 69.683992,36.8216161 68.7228287,37.2929711 C67.7616655,37.764326 66.4689576,38 64.8446662,38 Z M88.4712819,29.4932073 C86.0124922,29.4932073 84.0454899,29.0966765 82.5702161,28.3036031 C81.0949422,27.5105296 80.0183065,26.2536018 79.3402767,24.532782 C78.6622468,22.8119623 78.3232369,20.5150764 78.3232369,17.6420555 C78.3232369,14.9485985 78.6585214,12.7302706 79.3291004,10.9870053 C79.9996794,9.24374005 81.0725897,7.93818115 82.5478636,7.07028943 C84.0231374,6.20239771 85.9677873,5.76845836 88.3818718,5.76845836 C90.6916439,5.76845836 92.5431593,6.11261715 93.9364735,6.80094507 C95.3297877,7.48927298 96.3468172,8.57786222 96.9875927,10.0667454 C97.6283682,11.5556286 97.9487512,13.5420234 97.9487512,16.0259894 L97.9263987,18.2031896 L81.8102303,18.2031896 C81.8102303,20.283137 82.0374787,21.9478181 82.4919822,23.1972829 C82.9464858,24.4467477 83.6617593,25.3595167 84.6378244,25.9356172 C85.6138894,26.5117178 86.9214988,26.7997637 88.560692,26.7997637 C89.8869482,26.7997637 90.9561332,26.6650929 91.7682789,26.3957472 C92.5804245,26.1264015 93.1839366,25.696203 93.5788331,25.1051388 C93.9737297,24.5140746 94.1935273,23.7247539 94.2382325,22.737153 L97.7475785,22.737153 C97.7475785,25.0415551 96.9913257,26.7436448 95.4787975,27.8434731 C93.9662693,28.9433014 91.6304541,29.4932073 88.4712819,29.4932073 Z M94.4394052,15.6444182 C94.4841105,13.9235984 94.3052921,12.5469632 93.9029447,11.5144714 C93.5005973,10.4819795 92.8449299,9.72632647 91.9359228,9.24748966 C91.0269157,8.76865285 89.8124408,8.52923804 88.2924617,8.52923804 C86.6979738,8.52923804 85.4499705,8.74620771 84.5484143,9.18015357 C83.646858,9.61409943 82.9874652,10.3398256 82.5702161,11.3573538 C82.1529669,12.374882 81.9145424,13.8038892 81.8549354,15.6444182 L94.4394052,15.6444182 Z M129.014286,29.5605434 C129.014286,27.9893837 129.014286,25.6326206 129.014286,22.490254 L129.014286,8.95569994 L124.946127,8.95569994 L124.946127,6.21736562 L129.014286,6.21736562 L129.014286,0 L132.434222,0 L132.434222,6.21736562 L138,6.21736562 L138,8.95569994 L132.456575,8.95569994 L132.456575,22.9616066 C132.456575,23.8095468 132.456575,25.5192873 132.456575,28.090828 L129.014286,29.5605434 Z" id="projext" fill="#D5DAE2" fill-rule="nonzero"></path>
                <g id="X" transform="translate(99.459459, 3.114754)" fill="#A3BE8C">
                    <g id="Group-5">
                        <polygon id="Rectangle" transform="translate(5.281257, 5.921926) rotate(54.000000) translate(-5.281257, -5.921926) " points="-0.518010099 4.21149065 11.1051469 4.12941363 11.0805238 7.63236181 -0.542633206 7.71443883"></polygon>
                        <polygon id="Rectangle" transform="translate(18.741964, 5.921926) scale(-1, 1) rotate(54.000000) translate(-18.741964, -5.921926) " points="12.9426968 4.21149065 24.5658538 4.12941363 24.5412307 7.63236181 12.9180737 7.71443883"></polygon>
                        <polygon id="Rectangle" transform="translate(5.281257, 22.136928) scale(1, -1) rotate(54.000000) translate(-5.281257, -22.136928) " points="-0.518010099 20.4264921 11.1051469 20.3444151 11.0805238 23.8473633 -0.542633206 23.9294403"></polygon>
                        <polygon id="Rectangle" transform="translate(18.741964, 22.136928) scale(-1, -1) rotate(54.000000) translate(-18.741964, -22.136928) " points="12.9426968 20.4264921 24.5658538 20.3444151 24.5412307 23.8473633 12.9180737 23.9294403"></polygon>
                    </g>
                    <polygon id="Polygon" points="12.0295295 10.5473361 15.0060661 12.2818648 15.0060661 15.7509221 12.0295295 17.4854508 9.05299291 15.7509221 9.05299291 12.2818648"></polygon>
                </g>
            </g>
        </g>
    </g>
</svg>